<?xml version="1.0" encoding="UTF-8"?>
<!-- Created with Inkscape (http://www.inkscape.org/) -->
<svg width="236.06" height="356.35" version="1.1" viewBox="0 0 236.06 356.35" xmlns="http://www.w3.org/2000/svg">
 <g transform="translate(-315.3 15.904)">
  <path d="m487 13.21c7.697 0 9.7226 8.8067 9.7226 17.613 0 8.8067 4.0511 15.212 21.876 19.615 17.825 4.4033 21.054 20.829 21.054 36.034v188.94c0 14.811-4.4445 19.615-16.598 19.615-12.153 0-89.934-0.40031-89.934-0.40031s-77.78 0.40031-89.934 0.40031-16.598-4.8036-16.598-19.615v-188.94c0-15.205 3.2292-31.631 21.054-36.034 17.825-4.4033 21.876-10.808 21.876-19.615 0-8.8067 2.0255-17.613 9.7226-17.613h107.76" stroke="#000" stroke-width="1.006px"/>
 </g>
</svg>
